<?xml version="1.0" standalone="no"?>
<!DOCTYPE svg PUBLIC "-//W3C//DTD SVG 20010904//EN"
 "http://www.w3.org/TR/2001/REC-SVG-20010904/DTD/svg10.dtd">
<svg version="1.0" xmlns="http://www.w3.org/2000/svg"
 width="1087.000000pt" height="220.000000pt" viewBox="0 0 1087.000000 220.000000"
 preserveAspectRatio="xMidYMid meet">

<g transform="translate(0.000000,220.000000) scale(0.100000,-0.100000)"
fill="#000000" stroke="none">
<path d="M6802 2020 c-279 -22 -260 -8 -333 -227 l-51 -153 -62 0 c-34 0 -66
-4 -71 -9 -6 -5 -47 -3 -100 5 -49 7 -172 18 -272 25 -494 32 -950 -63 -1291
-268 -58 -35 -109 -60 -113 -56 -3 5 -14 30 -24 56 -10 27 -24 51 -31 54 -6 2
-26 43 -45 90 -18 47 -38 87 -46 90 -7 3 -129 -5 -270 -17 -296 -25 -283 -21
-388 -131 -36 -39 -68 -69 -69 -67 -2 1 -11 18 -20 36 -9 18 -20 31 -24 28 -4
-2 -22 36 -41 85 -39 105 -7 98 -293 69 -194 -20 -202 -22 -244 -52 -24 -17
-44 -35 -44 -40 0 -4 -9 -8 -19 -8 -14 0 -27 20 -52 84 -19 46 -37 85 -42 87
-4 1 -130 -6 -279 -16 -328 -23 -316 -17 -363 -164 -19 -60 -32 -88 -39 -82
-6 5 -37 12 -68 15 -34 5 -58 12 -58 19 0 7 9 41 20 77 13 42 16 66 9 71 -14
8 -163 26 -339 40 -605 48 -1223 -127 -1534 -435 -132 -130 -190 -257 -190
-416 0 -113 19 -186 69 -260 19 -29 35 -58 35 -64 0 -31 65 -138 106 -176 53
-49 144 -92 229 -110 33 -7 118 -12 189 -11 157 2 383 46 602 120 l141 47 52
-47 c75 -70 141 -92 271 -93 105 0 202 7 230 18 123 46 167 48 208 9 22 -21
31 -24 92 -30 60 -6 352 22 378 36 12 6 78 74 148 152 l127 140 32 -31 c25
-24 34 -43 38 -77 5 -49 27 -85 71 -117 34 -26 108 -28 303 -11 148 13 131 5
245 120 l70 70 24 -30 c13 -17 24 -38 24 -47 0 -9 4 -19 9 -23 5 -3 15 -22 22
-43 33 -100 161 -191 269 -192 19 0 110 5 202 11 l167 12 50 44 49 43 34 -19
c70 -42 184 -64 328 -64 74 0 158 5 185 11 28 7 107 26 176 42 70 17 186 50
259 74 l132 44 41 -40 c88 -86 208 -118 378 -99 113 12 307 61 319 80 4 8 23
1 59 -23 29 -20 71 -41 94 -48 56 -17 224 -14 317 6 91 19 250 67 250 75 0 3
4 12 9 19 6 10 16 5 41 -18 84 -78 224 -120 402 -120 179 0 378 40 641 129
l119 40 28 -33 c105 -119 335 -146 592 -69 l87 26 31 -26 c56 -48 85 -51 315
-32 115 9 214 19 221 23 6 4 24 18 41 32 l29 26 -10 78 c-14 116 2 225 47 321
48 101 118 203 187 275 53 55 143 120 164 120 6 -1 23 -18 38 -40 15 -22 47
-49 70 -61 24 -12 46 -26 50 -32 9 -14 106 -14 233 0 93 11 325 77 395 112 70
37 76 89 20 174 -22 33 -43 71 -46 86 -6 30 -12 42 -81 153 -82 132 -110 166
-166 202 -107 68 -142 70 -417 27 -160 -25 -230 -42 -313 -76 -13 -6 -20 1
-33 30 -14 35 -17 36 -52 31 -20 -3 -145 -13 -277 -22 l-240 -17 -33 -30 c-23
-23 -38 -52 -56 -111 -75 -250 -91 -295 -98 -288 -4 4 5 51 22 102 16 52 30
98 30 102 0 3 -27 9 -60 13 -35 4 -60 12 -60 18 0 7 9 41 20 76 11 35 18 66
15 69 -10 10 -183 32 -352 44 -134 9 -216 9 -375 0 -242 -14 -937 -36 -943
-30 -3 2 0 18 6 34 9 25 6 42 -21 112 -19 49 -37 82 -46 82 -8 0 -14 5 -14 10
0 6 -14 47 -31 90 l-30 80 -57 -1 c-31 -1 -157 -9 -280 -19z m309 -96 l19 -47
-50 -131 c-28 -72 -55 -141 -60 -154 -8 -18 -6 -24 6 -29 21 -8 972 15 1129
27 176 14 350 12 535 -6 91 -8 166 -17 168 -19 9 -8 -22 -93 -41 -113 l-22
-24 -205 7 c-160 5 -230 3 -321 -9 -379 -51 -604 -177 -708 -396 -31 -65 -36
-85 -36 -150 0 -59 5 -84 23 -118 69 -130 200 -104 382 77 100 100 206 234
302 383 33 50 69 93 85 101 30 16 340 44 367 34 13 -5 12 -14 -9 -59 -51 -113
-60 -390 -17 -512 34 -93 102 -166 157 -166 39 0 47 -14 36 -57 -11 -40 -12
-41 -89 -62 -263 -70 -427 -50 -530 64 l-47 52 -175 -57 c-431 -143 -701 -164
-891 -69 -137 68 -204 235 -165 411 41 185 200 350 464 485 l107 54 -60 -6
c-33 -4 -161 -14 -285 -23 l-225 -17 -28 -85 c-43 -132 -134 -449 -147 -513
-21 -105 11 -157 98 -157 43 0 44 -1 39 -27 -14 -71 -22 -79 -99 -101 -96 -28
-236 -52 -307 -52 -167 0 -273 94 -288 254 -7 74 7 130 106 434 l69 213 -72
-1 c-97 -2 -96 -2 -96 18 0 23 52 155 69 176 10 12 32 16 90 16 l76 0 54 163
c29 89 62 171 72 182 17 17 45 22 222 36 303 24 274 27 298 -27z m3315 -269
c28 -14 62 -37 76 -52 28 -30 168 -248 168 -262 0 -20 -136 -68 -289 -101
-121 -27 -246 -35 -299 -21 -53 15 -107 62 -124 107 -15 43 -33 43 -115 5
-118 -56 -264 -221 -353 -398 -55 -111 -64 -152 -66 -296 0 -71 -6 -133 -11
-138 -5 -5 -103 -17 -217 -26 -204 -16 -207 -16 -234 4 -46 34 -57 68 -56 173
0 66 9 127 27 200 39 160 224 715 244 732 14 12 68 20 226 32 296 23 272 26
292 -34 l16 -49 52 29 c66 37 211 76 374 99 182 27 229 26 289 -4z m-7588 -76
c14 -45 14 -49 -18 -125 -42 -100 -110 -287 -106 -291 1 -2 76 77 165 176 90
98 177 186 194 194 33 16 379 53 396 42 5 -3 16 -25 24 -50 15 -41 14 -57 -12
-232 -16 -103 -28 -189 -27 -190 1 0 82 88 181 198 142 157 188 201 220 213
22 8 135 22 254 31 234 18 219 21 241 -44 11 -36 10 -43 -28 -122 -96 -202
-136 -363 -136 -549 1 -136 21 -236 69 -330 20 -39 22 -50 11 -59 -14 -12
-207 -31 -322 -33 -61 0 -80 4 -124 28 -79 43 -134 124 -160 233 -12 52 -10
132 6 211 l7 35 -29 -35 c-16 -19 -86 -98 -156 -176 l-127 -141 -73 -6 c-168
-15 -267 -19 -292 -13 -57 14 -68 92 -41 291 8 61 15 125 15 143 l0 33 -32
-38 c-107 -122 -423 -470 -437 -479 -9 -6 -96 -17 -193 -24 -161 -12 -179 -12
-202 4 -76 49 -81 206 -15 441 56 195 211 654 227 668 13 12 62 19 197 30 99
8 209 14 245 13 l64 -1 14 -46z m-938 1 c52 -7 96 -13 98 -15 9 -8 -22 -93
-41 -114 l-22 -23 -200 7 c-223 7 -370 -6 -538 -50 -191 -50 -306 -112 -405
-220 -129 -141 -167 -320 -91 -426 111 -157 346 5 646 446 50 73 99 135 113
141 29 14 340 40 363 31 14 -5 13 -13 -8 -59 -13 -29 -29 -88 -36 -130 -15
-97 -7 -304 15 -374 30 -95 106 -174 168 -174 35 0 41 -12 28 -59 -10 -38 -12
-39 -88 -60 -263 -70 -427 -50 -530 64 l-47 52 -175 -57 c-432 -143 -706 -163
-898 -66 -94 48 -153 144 -167 272 -43 381 467 738 1170 819 137 16 491 13
645 -5z m4125 5 c87 -9 160 -17 162 -19 11 -10 -13 -81 -35 -108 l-26 -30
-200 6 c-266 9 -418 -9 -626 -76 -214 -68 -386 -224 -430 -388 -42 -155 23
-290 140 -290 117 0 332 206 538 515 45 68 90 126 104 132 36 16 356 39 369
26 7 -7 5 -23 -9 -49 -34 -68 -45 -143 -46 -294 0 -162 12 -222 63 -303 30
-47 79 -78 143 -91 26 -6 27 -7 14 -49 -11 -39 -16 -43 -64 -59 -94 -30 -249
-51 -334 -45 -115 8 -209 60 -255 141 -7 13 -29 8 -155 -34 -280 -94 -475
-134 -648 -134 -227 1 -352 61 -422 204 -19 39 -23 61 -23 165 0 115 1 123 32
188 38 80 53 101 136 185 158 163 459 308 767 372 239 49 526 62 805 35z
m-3951 -490 c-53 -166 -94 -327 -94 -372 0 -34 -16 -43 -38 -21 -15 15 -16
222 -2 299 12 65 58 158 85 173 11 6 35 23 54 38 19 15 36 26 37 25 2 -1 -17
-65 -42 -142z m6851 -21 c-52 -166 -85 -296 -85 -334 0 -14 -4 -31 -9 -39 -8
-13 -12 -13 -26 -1 -15 13 -17 32 -12 165 3 105 9 163 21 195 19 52 65 124 73
116 3 -3 22 8 41 24 20 16 38 28 40 26 2 -2 -18 -71 -43 -152z m-2714 -67
c-36 -113 -54 -188 -58 -241 -8 -98 -25 -87 -31 21 -10 172 41 370 101 393 43
16 41 -8 -12 -173z m-5012 86 c-64 -84 -159 -190 -213 -239 -72 -64 -149 -111
-154 -95 -5 16 45 121 58 121 6 0 9 4 6 8 -6 10 103 118 152 151 31 22 138 70
156 71 5 0 2 -8 -5 -17z m4195 5 c-22 -38 -125 -156 -198 -226 -78 -75 -160
-131 -174 -118 -3 3 11 39 31 80 48 96 135 179 248 235 86 43 105 49 93 29z
m2665 -5 c-68 -88 -152 -183 -210 -236 -72 -67 -151 -115 -158 -96 -2 6 11 39
28 73 51 103 161 202 279 252 69 28 78 29 61 7z"/>
</g>
</svg>
