<?xml version="1.0" standalone="no"?>
<!DOCTYPE svg PUBLIC "-//W3C//DTD SVG 20010904//EN"
 "http://www.w3.org/TR/2001/REC-SVG-20010904/DTD/svg10.dtd">
<svg version="1.0" xmlns="http://www.w3.org/2000/svg"
 width="112.000000pt" height="22.000000pt" viewBox="0 0 112.000000 22.000000"
 preserveAspectRatio="xMidYMid meet">

<g transform="translate(0.000000,22.000000) scale(0.100000,-0.100000)"
fill="#000000" stroke="none">
<path d="M675 190 c-3 -6 1 -7 9 -4 18 7 21 14 7 14 -6 0 -13 -4 -16 -10z"/>
<path d="M731 178 c-1 -25 2 -28 32 -27 21 1 25 3 11 6 -12 2 -26 14 -32 26
-10 21 -11 21 -11 -5z"/>
<path d="M273 163 c9 -2 17 -11 17 -20 0 -11 4 -13 13 -5 6 5 21 12 32 16 12
3 9 4 -8 2 -15 -2 -30 1 -33 5 -3 5 -13 8 -22 8 -15 -1 -15 -2 1 -6z"/>
<path d="M970 166 c0 -2 9 -6 20 -9 11 -3 18 -1 14 4 -5 9 -34 13 -34 5z"/>
<path d="M1028 163 c7 -3 16 -2 19 1 4 3 -2 6 -13 5 -11 0 -14 -3 -6 -6z"/>
<path d="M1070 166 c0 -2 8 -10 18 -17 15 -13 16 -12 3 4 -13 16 -21 21 -21
13z"/>
<path d="M98 153 c7 -3 16 -2 19 1 4 3 -2 6 -13 5 -11 0 -14 -3 -6 -6z"/>
<path d="M200 152 c0 -5 -21 -12 -46 -15 -54 -6 -91 -35 -79 -64 6 -17 8 -16
16 5 4 12 15 22 22 22 8 0 20 7 27 15 21 25 45 18 46 -12 0 -16 4 -37 9 -47 8
-17 5 -19 -33 -14 -23 4 -56 3 -75 -1 -18 -5 -43 -4 -54 0 -17 6 -21 5 -16 -7
8 -21 50 -28 91 -16 20 6 40 8 46 3 18 -14 99 -10 125 7 18 10 26 12 29 4 5
-15 45 -15 60 0 9 9 13 7 18 -5 5 -13 20 -16 71 -16 35 1 77 5 93 9 17 5 32 5
34 1 4 -6 107 -6 261 -2 6 1 33 -1 60 -3 64 -6 85 1 85 25 0 41 19 61 50 54
35 -8 70 2 70 18 0 8 -18 12 -51 11 -41 0 -56 -5 -70 -23 -11 -13 -19 -32 -19
-42 0 -14 -7 -19 -25 -19 -19 0 -25 5 -25 21 0 13 -4 18 -12 13 -8 -5 -9 -2
-5 10 4 10 7 20 7 22 0 3 4 3 8 0 4 -3 13 9 19 25 10 25 10 29 -2 19 -10 -8
-14 -8 -18 2 -4 10 -6 10 -6 1 -1 -8 -15 -13 -36 -13 -52 0 -95 -25 -95 -55 0
-26 14 -33 26 -13 5 7 3 8 -7 3 -12 -8 -12 -6 0 8 7 9 17 14 22 12 5 -3 14 3
21 15 20 31 48 26 48 -9 0 -17 5 -33 10 -36 24 -15 6 -24 -47 -23 -32 1 -68
-2 -80 -6 -16 -5 -28 -1 -43 14 -17 17 -19 24 -9 43 7 12 19 27 28 34 14 11
13 12 -7 13 -26 0 -46 -41 -37 -77 5 -20 2 -23 -25 -23 -24 0 -33 6 -40 26
-13 32 -13 54 -1 36 6 -10 10 -9 14 7 4 16 0 22 -19 27 -61 15 -145 -23 -131
-60 10 -24 23 -19 53 19 33 44 64 47 64 6 0 -16 3 -37 7 -47 6 -15 2 -16 -34
-11 -21 4 -54 2 -72 -3 -45 -13 -81 2 -81 34 0 13 7 29 15 36 22 19 1 50 -33
49 l-27 -2 28 -4 c24 -4 27 -8 20 -26 -4 -12 -8 -39 -7 -60 0 -35 -2 -38 -25
-35 -17 2 -27 11 -31 27 -5 21 -7 22 -19 7 -18 -22 -61 -21 -61 1 0 14 -3 13
-23 -5 -35 -33 -64 -29 -72 10 -6 24 -3 35 10 44 16 12 16 14 1 29 -9 9 -16
12 -16 7z m340 -67 c-7 -9 -15 -13 -17 -11 -7 7 7 26 19 26 6 0 6 -6 -2 -15z"/>
<path d="M528 153 c7 -3 16 -2 19 1 4 3 -2 6 -13 5 -11 0 -14 -3 -6 -6z"/>
<path d="M38 128 c-13 -13 -17 -18 -8 -12 8 6 24 16 35 22 11 6 15 12 8 12 -7
0 -22 -10 -35 -22z"/>
<path d="M360 132 c0 -12 3 -12 15 -2 8 7 15 13 15 15 0 1 -7 2 -15 2 -8 0
-15 -7 -15 -15z"/>
<path d="M1 74 c0 -11 3 -14 6 -6 3 7 2 16 -1 19 -3 4 -6 -2 -5 -13z"/>
</g>
</svg>
